<svg viewBox="0 0 320 65.33051999141692" height="65.33051999141692" width="320" style="width: 320px; height: 65.3305px; position: absolute; top: 50%; left: 50%; transform: translate(-50%, -50%) scale(0.945313); z-index: 0; cursor: pointer;"><defs id="SvgjsDefs1028"></defs><g id="SvgjsG1029" featurekey="symbolFeature-0" transform="matrix(1.0416676600783603,0,0,1.0416676600783603,0,-17.335002264978662)" fill="#111111"><g xmlns="http://www.w3.org/2000/svg"><path d="M70.846,31.583c-6.247-6.248-16.374-6.248-22.621,0c-6.248,6.246-6.248,16.373,0,22.621c6.247,6.246,16.374,6.246,22.621,0   C77.093,47.956,77.093,37.829,70.846,31.583z M51.188,51.239c-4.611-4.609-4.611-12.084,0-16.693   c4.609-4.611,12.084-4.611,16.694,0c4.61,4.609,4.61,12.084,0,16.693C63.272,55.851,55.798,55.851,51.188,51.239z"></path><path d="M93.927,70.29c-1.774-1.773-12.789-12.787-19.796-16.949l-4.058,4.059c4.186,6.982,15.085,18.111,16.859,19.885   c2.395,2.395,5.9,2.771,7.832,0.838C96.697,76.19,96.321,72.685,93.927,70.29z"></path><g><path d="M91.408,63.81l-7.743-39.475l-5.539,0.939l7.688,33.42C87.798,60.433,89.712,62.202,91.408,63.81z"></path><path d="M72.116,65.188c-11.76,1.775-22.138,6.652-22.138,6.652l-3.785,1.85l-3.783-1.85c0,0-21.205-9.975-37.343-6.596    l9.195-39.971l-5.54-0.939L0,68.812l46.194,8.443l31.336-5.729C75.743,69.538,73.849,67.351,72.116,65.188z"></path></g><path d="M40.652,42.892c0-4.533,1.599-8.814,4.511-12.225v-8.09c-9.857-7.729-26.447-5.693-26.447-5.693L8.723,62.159   c18.103-2.396,32.566,6.326,36.439,8.951V55.118C42.25,51.708,40.652,47.427,40.652,42.892z"></path><g><path d="M59.536,24.011c5.043,0,9.784,1.965,13.352,5.531c3.566,3.564,5.531,8.307,5.531,13.35c0,2.994-0.707,5.871-2.015,8.469    c1.799,1.143,3.798,2.648,5.827,4.299l-8.559-38.775c0,0-16.592-2.035-26.449,5.693v6.02    C50.649,25.638,54.964,24.011,59.536,24.011z"></path><path d="M68.11,59.71c-2.624,1.344-5.542,2.066-8.574,2.066c-4.572,0-8.887-1.629-12.312-4.588V71.11    c2.826-1.914,11.291-7.07,22.689-8.791C69.254,61.421,68.644,60.544,68.11,59.71z"></path></g></g></g><g id="SvgjsG1030" featurekey="nameFeature-0" transform="matrix(1.0988301623648322,0,0,1.0988301623648322,119.35608582456108,2.8181946295547693)" fill="#111111"><path d="M5.1563 40.17578 c0.41666 0.3125 0.87889 0.54689 1.3867 0.70314 l0 0.35156 c-0.67709 0.53385 -1.4388 0.80078 -2.2852 0.80078 c-0.65104 0 -1.263 -0.16275 -1.8359 -0.48828 c0.23438 -0.13021 0.45572 -0.29949 0.66406 -0.50783 c0.75521 -0.11719 1.4453 -0.40365 2.0703 -0.85938 z M11.563 14.043 c-1.224 0.70313 -1.8359 1.7578 -1.8359 3.1641 l0 7.5391 l0.019531 0.11719 c-0.63803 -0.54688 -0.95703 -1.237 -0.95703 -2.0703 l0 -7.4219 c0 -0.67709 0.22135 -1.2761 0.66406 -1.7969 l0.13672 -0.019531 l0.13672 0 c0.65104 0 1.263 0.16275 1.8359 0.48828 z M10.313 40.37113 c0.32553 0.49479 0.73566 0.88541 1.2304 1.1719 c-0.5599 0.32553 -1.1654 0.48828 -1.8164 0.48828 c-0.84635 0 -1.6081 -0.26693 -2.2852 -0.80078 l0 -0.17578 l0.21484 0.019531 l0.23438 0.019531 c0.80729 0 1.5625 -0.20182 2.2656 -0.60547 c0.05209 -0.026035 0.10418 -0.065098 0.15627 -0.11719 z M10.313 26.621000000000002 c0.32553 0.49479 0.73566 0.88541 1.2304 1.1719 c-1.2109 0.70313 -1.8164 1.7578 -1.8164 3.1641 l0 7.6563 c-0.625 -0.54688 -0.9375 -1.237 -0.9375 -2.0703 l0 -7.4219 c0 -1.0547 0.45572 -1.849 1.3672 -2.3828 c0.05209 -0.026035 0.10418 -0.065098 0.15627 -0.11719 z M7.8906 11.719000000000001 c0.65104 0 1.263 0.16275 1.8359 0.48828 c-1.224 0.70313 -1.8359 1.7578 -1.8359 3.1641 l0 7.4219 c0 1.4063 0.60547 2.4609 1.8164 3.1641 c-1.2109 0.70313 -1.8164 1.7578 -1.8164 3.1641 l0 7.4219 c0 1.3932 0.60547 2.4479 1.8164 3.1641 c-0.5599 0.32553 -1.1654 0.48828 -1.8164 0.48828 c-0.84635 0 -1.6081 -0.26693 -2.2852 -0.80078 l0 -26.875 c0.67709 -0.53385 1.4388 -0.80078 2.2852 -0.80078 z M2.4219 11.719000000000001 c0.84635 0 1.608 0.26693 2.2852 0.80078 l0 26.855 c-0.67709 0.54688 -1.4388 0.82031 -2.2852 0.82031 c-0.65104 0 -1.263 -0.16275 -1.8359 -0.48828 c1.224 -0.71615 1.8359 -1.7708 1.8359 -3.1641 l0 -7.4219 c0 -1.4063 -0.61197 -2.4609 -1.8359 -3.1641 c1.224 -0.70313 1.8359 -1.7578 1.8359 -3.1641 l0 -7.4219 c0 -1.4063 -0.61197 -2.4609 -1.8359 -3.1641 c0.5599 -0.32553 1.1719 -0.48828 1.8359 -0.48828 z M26.7574375 25.488 c-0.13021 0.78125 -0.39713 1.4063 -0.80078 1.875 l-0.33203 0 c-0.15625 -0.54688 -0.39063 -1.0156 -0.70313 -1.4063 c0.10416 -0.13021 0.20182 -0.27344 0.29297 -0.42969 z M25.9964375 28.262 c0.42969 0.49479 0.68357 1.1393 0.7617 1.9336 l-6.1914 -0.15625 l-6.1719 0.15625 c0.05209 -0.35156 0.14324 -0.68359 0.27346 -0.99609 c1.1849 -0.026035 2.5326 -0.058594 4.043 -0.097656 c4.1275 0.10416 6.1979 0.15625 6.2109 0.15625 c0.26041 0 0.47525 -0.097656 0.64453 -0.29297 c0.15625 -0.16928 0.23438 -0.36459 0.23438 -0.58594 l0 -0.11719 l0.19531 0 z M12.5585975 28.359 c0.11719 -0.78125 0.38412 -1.4128 0.80078 -1.8945 l10.801 -0.039063 c0.42969 0.49479 0.68359 1.1393 0.76172 1.9336 l-6.1914 -0.15625 z M18.7304375 23.809 l6.1914 -0.15625 c-0.13021 0.76822 -0.39715 1.3932 -0.8008 1.875 l-10.801 0.058594 c-0.44271 -0.50781 -0.70313 -1.1523 -0.78125 -1.9336 z M43.1054375 18.398 c-0.42969 -0.065098 -0.88541 -0.0976 -1.3672 -0.0976 c-1.3542 0 -2.4219 0.33203 -3.2031 0.99609 c-0.70313 0.61197 -1.0742 1.4128 -1.1133 2.4023 c-0.091152 -0.05209 -0.22787 -0.16277 -0.41016 -0.33205 c-0.20834 -0.19531 -0.35156 -0.42318 -0.42969 -0.68359 c-0.078125 -0.20834 -0.11719 -0.43621 -0.11719 -0.68361 c0 -0.82031 0.306 -1.4648 0.91797 -1.9336 c0.59896 -0.46875 1.4388 -0.70313 2.5195 -0.70313 c1.6406 0 2.6758 0.27994 3.1055 0.83984 c0.039063 0.065098 0.071621 0.1302 0.097656 0.19529 z M41.1134375 29.414 c0.8724 0.14322 1.4974 0.39063 1.875 0.74219 c0.065098 0.05209 0.1302 0.13021 0.19529 0.23438 l-0.097656 -0.019531 c-0.19531 -0.039063 -0.39713 -0.058594 -0.60547 -0.058594 c-1.1328 0 -2.0639 0.42969 -2.793 1.2891 c-0.20834 -0.58594 -0.52084 -1.0807 -0.9375 -1.4844 c0.54688 -0.49479 1.1719 -0.74219 1.875 -0.74219 c0.16928 0 0.33203 0.013027 0.48828 0.039063 z M50.7034375 31.699199999999998 c0 -1.1328 -0.13672 -2.1811 -0.41016 -3.1445 c0.89844 1.2891 1.3477 2.9492 1.3477 4.9805 c0 2.6432 -0.99609 4.7396 -2.9883 6.2891 c-1.901 1.4713 -4.3619 2.207 -7.3828 2.207 c-2.8125 0 -5.1041 -0.42969 -6.875 -1.2891 c-1.3932 -0.67709 -2.5 -1.0156 -3.3203 -1.0156 c-0.3125 0 -0.6185 0.039063 -0.91797 0.11719 c0.078125 -0.27344 0.19531 -0.54688 0.35156 -0.82031 c0.44271 0.14322 0.99609 0.37109 1.6602 0.68359 c1.888 0.92447 4.31 1.3867 7.2656 1.3867 c3.3725 0 6.0938 -0.86588 8.1641 -2.5977 c2.0703 -1.7188 3.1055 -3.9844 3.1055 -6.7969 z M48.4764375 18.379 c-0.14322 0.72916 -0.47525 1.3477 -0.99609 1.8555 c-0.46875 0.45572 -1.0156 0.76822 -1.6406 0.9375 c0.05209 -0.19531 0.078125 -0.39063 0.078125 -0.58594 c0 -0.36459 -0.10416 -0.70313 -0.3125 -1.0156 c0.27344 -0.18229 0.49479 -0.35807 0.66406 -0.52734 c0.40365 -0.40365 0.72266 -0.87891 0.95703 -1.4258 c0.28646 0.13021 0.54688 0.26693 0.78125 0.41016 c0.078125 0.05209 0.14322 0.097656 0.19531 0.13672 l0.058594 0.039063 l0.019531 0.019531 z M51.894437499999995 15.175999999999998 c-0.16928 0.63803 -0.48828 1.1849 -0.95703 1.6406 c-0.48178 0.48178 -1.0742 0.80078 -1.7773 0.95703 l-0.33203 -0.27344 l-0.019531 -0.019531 l-0.078125 -0.039063 c-0.065098 -0.05209 -0.14322 -0.10418 -0.23438 -0.15627 c-0.26041 -0.16928 -0.55338 -0.33203 -0.87891 -0.48828 c0.83334 -0.20834 1.543 -0.60547 2.1289 -1.1914 c0.078125 -0.091152 0.18229 -0.20834 0.3125 -0.35156 c0.27344 0.039063 0.53385 0.058594 0.78125 0.058594 c0.36459 0 0.71615 -0.045566 1.0547 -0.13672 z M40.2144375 21.328 c0.22135 0.59896 0.57945 1.1133 1.0742 1.543 c0.50781 0.44271 1.0872 0.72266 1.7383 0.83984 c2.0053 0.36459 3.5482 1.0482 4.6289 2.0508 c1.4323 1.3672 2.1484 3.3463 2.1484 5.9375 c0 2.6432 -0.99609 4.7396 -2.9883 6.2891 c-1.901 1.4713 -4.3619 2.207 -7.3828 2.207 c-2.8125 0 -5.1041 -0.42969 -6.875 -1.2891 c-1.3932 -0.67709 -2.5 -1.0156 -3.3203 -1.0156 c-0.3125 0 -0.6185 0.039063 -0.91797 0.11719 c0.16928 -0.625 0.48828 -1.1719 0.95703 -1.6406 c0.50781 -0.49479 1.1068 -0.81379 1.7969 -0.95701 l0.29297 0.25391 l0.019531 0.019531 l0.019531 0.019531 c0.039063 0.039063 0.078125 0.071621 0.11719 0.097656 c0.13021 0.10416 0.26693 0.20832 0.41016 0.31248 c0.46875 0.3125 0.98959 0.59896 1.5625 0.85938 c1.7838 0.82031 3.7631 1.2305 5.9375 1.2305 c2.5131 0 4.4986 -0.5599 5.957 -1.6797 s2.1875 -2.6367 2.1875 -4.5508 s-0.47525 -3.3139 -1.4258 -4.1992 c-1.1068 -1.0417 -3.3203 -1.9206 -6.6406 -2.6367 c-2.7344 -0.59896 -4.5182 -1.3542 -5.3516 -2.2656 c-0.52084 -0.54688 -0.78125 -1.4323 -0.78125 -2.6563 c0 -1.4583 0.54037 -2.7475 1.6211 -3.8672 c1.1719 -1.1979 2.6367 -1.7969 4.3945 -1.7969 c1.9531 0 3.7045 0.29947 5.2539 0.89844 c0.49479 0.19531 0.9375 0.40365 1.3281 0.625 c0.13021 0.078125 0.2474 0.14975 0.35156 0.21484 c0.026035 0.026035 0.05207 0.045566 0.078105 0.058594 l0.019531 0.019531 l0.019531 0 l0.19531 0.17578 c-0.14322 0.71615 -0.47525 1.3346 -0.99609 1.8555 c-0.46875 0.45572 -1.0221 0.76822 -1.6602 0.9375 c0.065098 -0.22135 0.097656 -0.42969 0.097656 -0.625 c0 -0.48178 -0.18881 -0.90496 -0.56641 -1.2696 c-0.67709 -0.65104 -1.8815 -0.97656 -3.6133 -0.97656 c-1.3932 0 -2.4805 0.35156 -3.2617 1.0547 c-0.71615 0.63803 -1.0742 1.4648 -1.0742 2.4805 c0 0.83334 0.27994 1.5039 0.83984 2.0117 l0.17578 0.17578 l0.21484 0.17578 c0.15625 0.11719 0.319 0.19531 0.48828 0.23438 c0.16928 0.05209 0.33855 0.078125 0.50783 0.078125 c0.85938 0 1.6667 -0.44922 2.4219 -1.3477 z M49.003437500000004 13.477 c0.3776 0 0.72906 -0.045547 1.0546 -0.1367 c-0.18229 0.63803 -0.50129 1.1849 -0.95701 1.6406 c-0.48178 0.48178 -1.0742 0.80078 -1.7773 0.95703 l-0.33203 -0.27344 l-0.019531 0 l-0.019531 -0.039063 c-0.039063 -0.013027 -0.078125 -0.032559 -0.11719 -0.058594 c-0.10416 -0.078125 -0.22785 -0.16275 -0.37107 -0.25391 c-0.42969 -0.2474 -0.90494 -0.47527 -1.4258 -0.68361 c-1.6667 -0.65104 -3.5482 -0.97656 -5.6445 -0.97656 c-1.901 0 -3.5287 0.64453 -4.8828 1.9336 s-2.0313 2.8516 -2.0313 4.6875 l0 0.37109 l0.019531 0.37109 c0.013027 0.28646 0.045586 0.54688 0.097676 0.78125 c0.11719 0.57291 0.36459 1.0807 0.74219 1.5234 c0.96354 1.1328 2.9623 2.0248 5.9961 2.6758 c3.125 0.6901 5.1822 1.4909 6.1719 2.4023 c0.79428 0.72916 1.1914 1.9206 1.1914 3.5742 c-0.013027 1.6406 -0.66406 2.9428 -1.9531 3.9063 c-1.3021 0.95053 -3.0729 1.4258 -5.3125 1.4258 c-2.0053 0 -3.8477 -0.38412 -5.5273 -1.1523 c-0.53385 -0.23438 -1.0156 -0.49479 -1.4453 -0.78125 c-0.13021 -0.091152 -0.25391 -0.1823 -0.37109 -0.27346 c-0.039063 -0.026035 -0.071621 -0.05207 -0.097656 -0.078105 l-0.019531 -0.019531 l-0.019531 0 l-0.21484 -0.19531 c0.15625 -0.72916 0.48828 -1.3477 0.99609 -1.8555 c0.46875 -0.45572 1.0221 -0.76822 1.6602 -0.9375 c-0.039063 0.14322 -0.058594 0.28645 -0.058594 0.42967 c0 0.57291 0.34506 1.1328 1.0352 1.6797 c0.98959 0.79428 2.3697 1.1914 4.1406 1.1914 c3.2943 0 4.9414 -1.1523 4.9414 -3.457 c0 -1.0417 -0.28646 -1.8294 -0.85938 -2.3633 c-0.49479 -0.46875 -1.276 -0.78775 -2.3438 -0.95703 c-0.20834 -0.039063 -0.41668 -0.058594 -0.62502 -0.058594 c-1.1198 0 -2.0443 0.42969 -2.7734 1.2891 c-0.3776 -1.0807 -1.0156 -1.7838 -1.9141 -2.1094 c-1.7448 -0.63803 -2.9557 -1.2826 -3.6328 -1.9336 c-1.3412 -1.3412 -2.0117 -3.1771 -2.0117 -5.5078 c0 -2.5391 0.8724 -4.5834 2.6172 -6.1328 c1.7708 -1.5755 4.1537 -2.3633 7.1484 -2.3633 c2.1225 0 3.9518 0.306 5.4883 0.91797 c1.3932 0.5599 2.5455 0.83984 3.457 0.83984 z M68.33940625 29.219 c0.83334 0 1.5299 0.319 2.0898 0.95703 l-0.25391 -0.019531 l-7.3828 0 l0 4.082 l-0.95703 0 l0.019531 -5.0195 l6.4844 0 z M74.12140625 14.434000000000001 c0.33854 -0.53385 0.55336 -1.1198 0.64451 -1.7578 c0.20834 -0.22135 0.37762 -0.4427 0.50783 -0.66404 c0.32553 0.5599 0.48828 1.1654 0.48828 1.8164 l0 0.058594 c0 0.6901 -0.19531 1.3346 -0.58594 1.9336 l-0.48828 0 c-0.11719 -0.50781 -0.306 -0.97006 -0.56641 -1.3867 z M73.84740625 25.293 c0 0.70313 -0.20182 1.3607 -0.60547 1.9727 l-0.46875 0 c-0.13021 -0.50781 -0.32553 -0.97006 -0.58594 -1.3867 c0.35156 -0.54688 0.57291 -1.1328 0.66406 -1.7578 c0.19531 -0.22135 0.35807 -0.4427 0.48828 -0.66404 c0.33854 0.57291 0.50781 1.1849 0.50781 1.8359 z M72.28540625 30.6055 c0.41666 -0.70313 0.625 -1.4648 0.625 -2.2852 l-0.019531 -0.078125 l0 -0.078125 l0.35156 0 c0.40365 0.625 0.60547 1.2891 0.60547 1.9922 c0 0.65104 -0.16928 1.263 -0.50781 1.8359 c-0.28646 -0.49479 -0.67709 -0.90494 -1.1719 -1.2305 c0.05209 -0.065098 0.091152 -0.11719 0.11719 -0.15625 z M74.76540625 35.8008 c0.20834 -0.20834 0.3776 -0.42967 0.50781 -0.66404 c0.32553 0.57291 0.48828 1.1849 0.48828 1.8359 c0 0.71615 -0.19531 1.3802 -0.58594 1.9922 l-0.48828 0 c-0.11719 -0.52084 -0.3125 -0.98959 -0.58594 -1.4063 c0.35156 -0.53385 0.57291 -1.1198 0.66406 -1.7578 z M75.17540625000001 39.8633 c0.39063 0.59896 0.58594 1.2565 0.58594 1.9727 c0 0.65104 -0.16275 1.263 -0.48828 1.8359 c-0.28646 -0.49479 -0.67709 -0.90494 -1.1719 -1.2305 c0.05209 -0.065098 0.091152 -0.11719 0.11719 -0.15625 c0.40365 -0.70313 0.60547 -1.4648 0.60547 -2.2852 l0 -0.13672 l0.35156 0 z M70.27340625 17.773 c0.83334 0 1.5299 0.319 2.0898 0.95703 l-0.13672 0 l-0.11719 -0.019531 l-9.3164 0 l0 3.8477 l-0.95703 0 l0.019531 -4.7852 l8.418 0 z M75.17540625000001 16.719 c0.39063 0.61197 0.58594 1.276 0.58594 1.9922 c0 0.66406 -0.16275 1.276 -0.48828 1.8359 c-0.28646 -0.49479 -0.67709 -0.90494 -1.1719 -1.2305 c0.05209 -0.065098 0.091152 -0.11719 0.11719 -0.15625 c0.40365 -0.70313 0.60547 -1.4648 0.60547 -2.2852 l0 -0.15625 l0.35156 0 z M70.27340625 40.89846 c0.83334 0 1.5234 0.319 2.0703 0.95703 l-0.11719 0 l-0.11719 -0.019531 l-14.785 0.019531 c-0.65104 0 -1.263 -0.16928 -1.8359 -0.50781 c0.19531 -0.11719 0.39713 -0.26693 0.60547 -0.44922 l14.18 0 z M70.27340625 12.012 c1.4063 0 2.4609 -0.61197 3.1641 -1.8359 c0.32553 0.5599 0.48828 1.1654 0.48828 1.8164 c0 0.71615 -0.19531 1.3802 -0.58594 1.9922 l-15.566 0 l0 24.043 l15.566 0 c0.39063 0.59896 0.58594 1.2565 0.58594 1.9727 c0 0.65104 -0.16275 1.263 -0.48828 1.8359 c-0.70313 -1.224 -1.7578 -1.8359 -3.1641 -1.8359 l-14.785 0 c-0.65104 0 -1.263 -0.16275 -1.8359 -0.48828 c1.2109 -0.70313 1.8229 -1.7513 1.8359 -3.1445 l0 -7.207 c-0.013027 -1.4063 -0.625 -2.4609 -1.8359 -3.1641 c1.2109 -0.70313 1.8229 -1.7513 1.8359 -3.1445 l0 -7.207 c-0.013027 -1.3932 -0.625 -2.4414 -1.8359 -3.1445 c0.57291 -0.32553 1.1849 -0.48828 1.8359 -0.48828 l14.785 0 z M71.50440625 30.1562 c-0.70313 -1.224 -1.7578 -1.8359 -3.1641 -1.8359 l-7.3828 0 l-0.019531 6.8164 l9.3359 0 c1.4063 0 2.4609 -0.61197 3.1641 -1.8359 c0.32553 0.57291 0.48828 1.1849 0.48828 1.8359 c0 0.71615 -0.19531 1.3737 -0.58594 1.9727 l-14.668 0 l0 -10.781 l12.734 0 c0.40365 0.625 0.60547 1.2891 0.60547 1.9922 c0 0.65104 -0.16928 1.263 -0.50781 1.8359 z M58.67190625 14.883 l14.668 0.000019073 c0.39063 0.61197 0.58594 1.276 0.58594 1.9922 c0 0.66406 -0.16275 1.276 -0.48828 1.8359 c-0.70313 -1.224 -1.7578 -1.8359 -3.1641 -1.8359 l-9.3164 0 l0 6.582 l7.3828 0 c1.4063 0 2.4609 -0.61197 3.1641 -1.8359 c0.33854 0.57291 0.50781 1.1849 0.50781 1.8359 c0 0.70313 -0.20182 1.3607 -0.60547 1.9727 l-12.734 0 l0 -10.547 z M89.94165625 22.988 l0.74219 2.2266 l-1.4844 4.2773 l-1.5234 0 z M96.17165625 14.043 c-0.57291 0.32553 -0.98959 0.78125 -1.25 1.3672 c-0.14322 0.32553 -0.21484 0.65756 -0.21484 0.99609 c0 0.28646 0.05209 0.57943 0.15625 0.87891 c-0.49479 -1.3672 -0.76822 -2.1094 -0.82031 -2.2266 c-0.078125 -0.23438 -0.11719 -0.45572 -0.11719 -0.66406 c0 -0.29947 0.078125 -0.57291 0.23438 -0.82031 l0.097656 -0.019531 l0.078125 0 c0.66406 0 1.276 0.16275 1.8359 0.48828 z M94.17965625 35.8984 c0.11719 0.32553 0.22785 0.63799 0.33201 0.93746 l-7.793 0 c0 0.013027 -0.026035 0.091152 -0.078125 0.23438 l-0.019531 0.097656 l-0.039063 0.11719 l-0.097656 0.25391 c-0.14322 0.49479 -0.24738 0.82031 -0.31248 0.97656 l-0.078125 0.25391 c-0.45572 -0.32553 -0.78125 -0.74219 -0.97656 -1.25 c-0.013027 -0.026035 -0.019531 -0.065098 -0.019531 -0.11719 c0 -0.10416 0.032559 -0.24738 0.097656 -0.42967 c0.026035 -0.10416 0.078125 -0.26041 0.15625 -0.46875 c0.05209 -0.18229 0.11068 -0.3841 0.17578 -0.60545 l8.6523 0 z M100.85965625 27.793 c-0.42969 0.50781 -0.72266 1.0873 -0.87891 1.7383 c-0.078125 0.29947 -0.11719 0.59895 -0.11719 0.89842 c0 0.36459 0.065098 0.72266 0.19531 1.0742 l-0.83984 -2.2656 c-0.11719 -0.3125 -0.17578 -0.625 -0.17578 -0.9375 c0 -0.39063 0.091152 -0.78125 0.27344 -1.1719 c0.48178 0.35156 0.99609 0.57291 1.543 0.66406 z M99.84365625 40.93748 l0.058594 0.21484 c-0.67709 0.58594 -1.4648 0.87891 -2.3633 0.87891 c-0.65104 0 -1.263 -0.16275 -1.8359 -0.48828 c0.20834 -0.11719 0.42969 -0.28646 0.66406 -0.50781 c0.76822 -0.11719 1.4583 -0.41016 2.0703 -0.87891 l0.13672 0.11719 c0.39063 0.27344 0.80729 0.47525 1.25 0.60547 z M103.63265625 40.35154 c0.32553 0.52084 0.72918 0.91797 1.211 1.1914 c-0.57291 0.32553 -1.1849 0.48828 -1.8359 0.48828 c-0.75521 0 -1.4518 -0.22135 -2.0898 -0.66406 l-0.097656 -0.29297 l0.17578 0 l0.17578 0.019531 c0.80729 0 1.5625 -0.20182 2.2656 -0.60547 c0.065098 -0.039063 0.1302 -0.084629 0.19529 -0.13672 z M86.46465625 40.35154 c0.33854 0.50781 0.74867 0.90494 1.2304 1.1914 c-0.5599 0.32553 -1.1654 0.48828 -1.8164 0.48828 c-0.89844 0 -1.6927 -0.29947 -2.3828 -0.89844 l0.039063 -0.078125 l0.25391 0.019531 l0.25391 0.019531 c0.82031 0 1.5755 -0.20182 2.2656 -0.60547 c0.05209 -0.039063 0.10418 -0.084629 0.15627 -0.13672 z M81.28905625 40.15623 c0.40365 0.3125 0.85285 0.54689 1.3476 0.70314 l-0.17578 0.52734 c-0.61197 0.42969 -1.2956 0.64453 -2.0508 0.64453 c-0.65104 0 -1.263 -0.16275 -1.8359 -0.48828 c0.20834 -0.11719 0.42318 -0.28646 0.64453 -0.50781 c0.70313 -0.091152 1.3412 -0.33855 1.9141 -0.74221 c0.065098 -0.039063 0.11719 -0.084629 0.15625 -0.13672 z M99.23865624999999 31.875 c0.091152 0.26041 0.22139 0.62498 0.39066 1.0937 l0.19531 0.54688 l0.19531 0.50781 c0.58594 1.6276 1.0287 2.8451 1.3281 3.6523 c0.33854 0.91146 0.89191 1.5886 1.6601 2.0313 c-0.57291 0.32553 -1.1849 0.48828 -1.8359 0.48828 c-0.75521 0 -1.4518 -0.22135 -2.0898 -0.66406 l-2.4219 -7.2461 l-6.5234 -19.688 c0.6901 -0.58594 1.4779 -0.87891 2.3633 -0.87891 c0.66406 0 1.276 0.16275 1.8359 0.48828 c-0.5599 0.32553 -0.94402 0.76824 -1.1524 1.3281 c-0.10416 0.27344 -0.15625 0.5599 -0.15625 0.85938 c0 0.3125 0.058594 0.63803 0.17578 0.97656 c0.026035 0.05209 0.11719 0.306 0.27344 0.76172 c0.19531 0.52084 0.42318 1.1328 0.68359 1.8359 c0.70313 1.9271 1.3867 3.8086 2.0508 5.6445 c0.48178 1.3151 1.4193 2.0963 2.8125 2.3438 c-0.59896 0.70313 -0.89844 1.4583 -0.89844 2.2656 c0 0.42969 0.084629 0.8724 0.25391 1.3281 c0.2474 0.66406 0.53387 1.4388 0.85939 2.3242 z M96.01565625 33.1445 l1.9922 5.957 l0.058594 0.21484 c-0.67709 0.58594 -1.4648 0.87891 -2.3633 0.87891 c-0.65104 0 -1.263 -0.16275 -1.8359 -0.48828 c0.75521 -0.44271 1.2891 -1.0677 1.6016 -1.875 c0.039063 -0.11719 0.058594 -0.2474 0.058594 -0.39063 c0 -0.22135 -0.045566 -0.47525 -0.13672 -0.76172 c-0.05209 -0.16928 -0.15625 -0.4948 -0.3125 -0.97658 l-0.097656 -0.25391 c-0.026035 -0.065098 -0.05207 -0.13672 -0.078105 -0.21484 c-0.039063 -0.14322 -0.065098 -0.22135 -0.078125 -0.23438 l-9.9414 0 c0 0.013027 -0.026035 0.091152 -0.078125 0.23438 l-0.039063 0.097656 l-0.019531 0.11719 l-0.097656 0.25391 c-0.14322 0.49479 -0.24738 0.82031 -0.31248 0.97656 c-0.091152 0.27344 -0.13672 0.51432 -0.13672 0.72266 c0 0.15625 0.026035 0.29947 0.078125 0.42969 c0.29947 0.80729 0.82682 1.4323 1.582 1.875 c-0.5599 0.32553 -1.1654 0.48828 -1.8164 0.48828 c-0.89844 0 -1.6927 -0.29947 -2.3828 -0.89844 l2.0313 -6.1523 l12.324 0 z M89.96065625 20.215 l-3.5547 10.176 l6.9727 0 z M95.72265625 32.2461 l-11.738 0 l5.8789 -17.637 z M83.02715625 32.2461 l-2.4023 7.3047 c-0.61197 0.42969 -1.2956 0.64453 -2.0508 0.64453 c-0.65104 0 -1.263 -0.16275 -1.8359 -0.48828 c0.76822 -0.44271 1.3151 -1.1198 1.6406 -2.0313 c0.27344 -0.72916 0.71615 -1.9466 1.3281 -3.6523 l0.19531 -0.52734 l0.19531 -0.52734 c0.14322 -0.40365 0.27344 -0.76824 0.39063 -1.0938 c0.29947 -0.84635 0.57941 -1.6211 0.83982 -2.3242 c0.16928 -0.45572 0.25391 -0.89844 0.25391 -1.3281 c0 -0.80729 -0.29297 -1.5625 -0.87891 -2.2656 c1.3802 -0.2474 2.3111 -1.0287 2.793 -2.3438 c0.6901 -1.875 1.3737 -3.7564 2.0508 -5.6445 c0.59896 -1.6276 0.91797 -2.4936 0.95703 -2.5977 c0.11719 -0.33854 0.17578 -0.66406 0.17578 -0.97656 c0 -0.29947 -0.05209 -0.58594 -0.15625 -0.85938 c-0.20834 -0.5599 -0.59246 -1.0026 -1.1524 -1.3281 c0.57291 -0.32553 1.1849 -0.48828 1.8359 -0.48828 c0.89844 0 1.6927 0.29297 2.3828 0.87891 z M128.418375 20.566 c0 -1.0026 -0.13021 -1.9662 -0.39063 -2.8906 c0.88541 1.3932 1.3281 2.9688 1.3281 4.7266 c0 1.8229 -0.50131 3.3984 -1.5039 4.7266 c-0.88541 1.1719 -2.0508 2.0313 -3.4961 2.5781 l-0.70313 -1.3477 c1.5104 -0.72916 2.6822 -1.7708 3.5156 -3.125 c0.83334 -1.3672 1.25 -2.9232 1.25 -4.668 z M130.273375 40.48824 c0.46875 0.46875 0.91799 0.83334 1.3477 1.0938 c-0.59896 0.32553 -1.2175 0.48828 -1.8555 0.48828 c-0.74219 0 -1.4388 -0.18229 -2.0898 -0.54688 l-0.19531 -0.42969 l0.21484 0.019531 l0.23438 0.019531 c0.79428 0 1.556 -0.20182 2.2852 -0.60547 l0.039063 -0.019531 z M116.757375 30.664099999999998 l-1.9922 0 l0 7.8711 l0.019531 0.11719 c-0.63803 -0.54688 -0.95703 -1.237 -0.95703 -2.0703 l0 -6.8555 l2.4609 0 z M118.086375 17.773 c1.0547 0 1.862 0.32553 2.4219 0.97656 c-0.20834 -0.026035 -0.40365 -0.039063 -0.58594 -0.039063 l-5.1563 0 l0 4.6484 l-0.9375 0 l0 -5.5859 l4.2578 0 z M110.195275 40.2148 c0.41666 0.3125 0.87889 0.54688 1.3867 0.70313 l0 0.35156 c-0.67709 0.53385 -1.4388 0.80078 -2.2852 0.80078 c-0.65104 0 -1.263 -0.16275 -1.8359 -0.48828 c0.23438 -0.14322 0.46225 -0.3125 0.68359 -0.50781 c0.75521 -0.11719 1.4388 -0.40365 2.0508 -0.85938 z M125.410375 40.46871 c0.26041 0.14322 0.57291 0.27342 0.9375 0.39061 l0.15625 0.33203 c-0.61197 0.58594 -1.3477 0.87891 -2.207 0.87891 c-0.65104 0 -1.25 -0.16275 -1.7969 -0.48828 c0.23438 -0.14322 0.41016 -0.3125 0.52734 -0.50781 c0.79428 -0.10416 1.4844 -0.40363 2.0703 -0.89842 c0.078125 0.11719 0.18229 0.21484 0.3125 0.29297 z M115.351375 40.39057 c0.32553 0.50781 0.73564 0.90492 1.2304 1.1914 c-0.57291 0.32553 -1.1784 0.48828 -1.8164 0.48828 c-0.85938 0 -1.6211 -0.26693 -2.2852 -0.80078 l0 -0.17578 l0.21484 0.019531 l0.23438 0.019531 c0.79428 0 1.5495 -0.20182 2.2656 -0.60547 c0.05209 -0.026035 0.10418 -0.071602 0.15627 -0.1367 z M126.894375 36.5625 c0.74219 1.4063 1.7057 2.4674 2.8906 3.1836 c-0.59896 0.32553 -1.2175 0.48828 -1.8555 0.48828 c-0.74219 0 -1.4388 -0.18229 -2.0898 -0.54688 l-6.4063 -12.734 c1.7708 -0.23438 3.19 -0.91146 4.2578 -2.0313 c1.0547 -1.1328 1.582 -2.5521 1.582 -4.2578 c0 -2.1484 -0.76172 -3.8346 -2.2852 -5.0586 c-1.3412 -1.0807 -2.9623 -1.6211 -4.8633 -1.6211 l-8.3789 0 l0 25.449 c-0.67709 0.53385 -1.4388 0.80078 -2.2852 0.80078 c-0.65104 0 -1.263 -0.16275 -1.8359 -0.48828 c1.224 -0.71615 1.8359 -1.7708 1.8359 -3.1641 l0 -7.4609 c-0.013027 -1.3802 -0.625 -2.4219 -1.8359 -3.125 c1.2109 -0.70313 1.8229 -1.7513 1.8359 -3.1445 l0 -7.2461 c-0.013027 -1.3802 -0.625 -2.4219 -1.8359 -3.125 c0.57291 -0.32553 1.1849 -0.48828 1.8359 -0.48828 l10.977 0 c2.7604 0 4.9869 0.83984 6.6797 2.5195 c1.6016 1.6016 2.4023 3.6197 2.4023 6.0547 c0 1.849 -0.51432 3.4439 -1.543 4.7852 c-0.89844 1.1719 -2.0898 2.0248 -3.5742 2.5586 z M118.164375 27.051000000000002 l0.13672 -0.019531 l0.15625 0 l6.2109 12.324 c-0.61197 0.58594 -1.3477 0.87891 -2.207 0.87891 c-0.65104 0 -1.2565 -0.16275 -1.8164 -0.48828 c0.46875 -0.27344 0.70313 -0.65104 0.70313 -1.1328 l0 -0.15625 c-0.039063 -0.40365 -0.26693 -1.0352 -0.68359 -1.8945 l-3.8086 -7.7344 l-3.9258 0 l0 7.7539 c0 1.3932 0.60547 2.4479 1.8164 3.1641 c-0.57291 0.32553 -1.1784 0.48828 -1.8164 0.48828 c-0.85938 0 -1.6211 -0.26693 -2.2852 -0.80078 l0 -12.383 l7.5195 0 z M118.086375 24.258 c1.1849 0 2.1484 -0.34508 2.8906 -1.0352 c0.71615 -0.6901 1.0742 -1.5755 1.0742 -2.6563 c0 -1.0938 -0.35807 -1.9791 -1.0742 -2.6563 c-0.74219 -0.6901 -1.7057 -1.0352 -2.8906 -1.0352 l-5.1563 0 l0 7.3828 l5.1563 0 z M118.886375 26.113 c-0.27344 0.026035 -0.51432 0.039043 -0.72266 0.039043 l-7.5195 0 l0 -11.27 l7.4805 0 c0.61197 0 1.2435 0.084629 1.8945 0.25391 c0.75521 0.20834 1.4323 0.51434 2.0313 0.91799 c1.5495 1.0417 2.3242 2.5781 2.3242 4.6094 c0 1.6927 -0.56641 3.0209 -1.6992 3.9844 c-0.95053 0.82031 -2.1811 1.3021 -3.6914 1.4453 z M147.63696875 21.523 c0.625 -0.091152 1.2109 -0.31248 1.7578 -0.66404 c0.40365 0.26041 0.8659 0.45572 1.3867 0.58594 l0 0.15625 l0.019531 0.3125 c-0.625 0.40365 -1.2956 0.60547 -2.0117 0.60547 c-0.65104 0 -1.263 -0.16275 -1.8359 -0.48828 c0.23438 -0.13021 0.46225 -0.29949 0.68359 -0.50783 z M154.12096875 20.957 c0.039063 -0.026035 0.091133 -0.065098 0.15623 -0.11719 c0.32553 0.50781 0.73568 0.90494 1.2305 1.1914 c-0.57291 0.32553 -1.1849 0.48828 -1.8359 0.48828 c-0.71615 0 -1.3802 -0.19531 -1.9922 -0.58594 l0 -0.37109 l0.078125 0.019531 l0.078125 0 c0.80729 0 1.569 -0.20834 2.2852 -0.625 z M142.12896875 17.48 c1.25 0 2.2266 0.3451 2.9297 1.0352 c-0.35156 -0.05209 -0.71615 -0.078125 -1.0938 -0.078125 c-1.4583 0 -2.6236 0.49479 -3.4961 1.4844 c-0.42969 0.54688 -0.72916 1.1068 -0.89844 1.6797 c-0.20834 0.6901 -0.33855 1.7318 -0.39064 3.125 l0 0.13672 c-0.59896 -0.52084 -0.91146 -1.1784 -0.9375 -1.9727 c0.05209 -1.3151 0.16928 -2.2852 0.35156 -2.9102 c0.13021 -0.44271 0.36459 -0.87891 0.70313 -1.3086 c0.70313 -0.79428 1.6471 -1.1914 2.832 -1.1914 z M153.67196875 33.0664 c0.65104 0 1.2631 0.16273 1.836 0.48826 c-0.78125 0.44271 -1.3281 1.1068 -1.6406 1.9922 c-0.70313 1.9662 -1.862 3.5092 -3.4766 4.6289 c-1.7578 1.237 -3.8998 1.8555 -6.4258 1.8555 c-2.0834 0 -3.9518 -0.50781 -5.6055 -1.5234 c1.1979 0.39063 2.4545 0.58594 3.7695 0.58594 c2.6041 0 4.8438 -0.6185 6.7188 -1.8555 s3.2162 -2.9818 4.0234 -5.2344 c0.11719 -0.33854 0.29947 -0.64453 0.54688 -0.91797 l0.11719 -0.019531 l0.13672 0 z M139.41406875 33.3594 l-0.078145 -0.097619 c-0.35156 -0.44271 -0.59244 -0.88543 -0.72266 -1.3281 c-0.19531 -0.625 -0.319 -1.5951 -0.37109 -2.9102 c0.039063 -1.0156 0.49479 -1.7838 1.3672 -2.3047 c0.05209 -0.013027 0.10418 -0.05209 0.15627 -0.11719 c0.32553 0.50781 0.73568 0.90494 1.2305 1.1914 c-1.1719 0.6901 -1.7773 1.7122 -1.8164 3.0664 c0.039063 1.0417 0.11719 1.875 0.23438 2.5 z M151.83596875 20.684 c-0.71615 0 -1.3802 -0.19535 -1.9922 -0.58598 l0 -0.44922 c-0.013027 -0.05209 -0.019531 -0.11719 -0.019531 -0.19531 c-0.039063 -0.22135 -0.084629 -0.44922 -0.13672 -0.68359 c-0.18229 -0.75521 -0.47525 -1.4453 -0.87891 -2.0703 c-1.3021 -1.9922 -3.4701 -2.9883 -6.5039 -2.9883 c-2.4869 0 -4.375 0.64453 -5.6641 1.9336 c-1.0156 1.0287 -1.7122 2.526 -2.0898 4.4922 c-0.26041 1.3932 -0.39063 3.2227 -0.39063 5.4883 l0 0.33203 c0.026035 3.9713 0.46223 6.8164 1.3086 8.5352 c1.1979 2.474 3.4766 3.7109 6.8359 3.7109 c3.0338 0 5.2018 -0.99609 6.5039 -2.9883 c0.40365 -0.625 0.69662 -1.3151 0.87891 -2.0703 c0.05209 -0.23438 0.097656 -0.46875 0.13672 -0.70313 c0 -0.065098 0.0065041 -0.1302 0.019531 -0.19529 l0 -0.42969 c0.61197 -0.39063 1.276 -0.58594 1.9922 -0.58594 c0.65104 0 1.263 0.16275 1.8359 0.48828 c-0.78125 0.44271 -1.3281 1.1068 -1.6406 1.9922 c-0.70313 1.9531 -1.862 3.4961 -3.4766 4.6289 c-1.7578 1.237 -3.8998 1.8555 -6.4258 1.8555 c-2.9947 0 -5.5143 -1.0221 -7.5586 -3.0664 c-1.2109 -1.2109 -1.9727 -2.6172 -2.2852 -4.2188 c-0.19531 -0.96354 -0.32553 -2.2266 -0.39063 -3.7891 c0 -1.4063 -0.61197 -2.4609 -1.8359 -3.1641 c1.224 -0.70313 1.8359 -1.7578 1.8359 -3.1641 c0.065098 -1.5625 0.19531 -2.832 0.39063 -3.8086 c0.3125 -1.5885 1.0742 -2.9883 2.2852 -4.1992 c2.0572 -2.0443 4.5768 -3.0664 7.5586 -3.0664 c2.526 0 4.668 0.61197 6.4258 1.8359 c1.6146 1.1328 2.7734 2.6822 3.4766 4.6484 c0.29947 0.8724 0.84635 1.5365 1.6406 1.9922 c-0.57291 0.32553 -1.1849 0.48828 -1.8359 0.48828 z M146.09396875 19.395 c0.10416 -0.15625 0.16271 -0.31889 0.17574 -0.48816 l0 -0.039063 c0 -0.20834 -0.078125 -0.41668 -0.23438 -0.62502 c-0.89844 -1.0938 -2.2006 -1.6406 -3.9063 -1.6406 c-1.4583 0 -2.6236 0.49479 -3.4961 1.4844 c-0.42969 0.54688 -0.72916 1.1068 -0.89844 1.6797 c-0.20834 0.6901 -0.33855 1.7318 -0.39064 3.125 c0.039063 1.3672 0.64453 2.3893 1.8164 3.0664 c-1.1719 0.67709 -1.7773 1.6992 -1.8164 3.0664 c0.05209 1.3932 0.1823 2.435 0.39064 3.125 c0.16928 0.57291 0.46875 1.1328 0.89844 1.6797 c0.8724 0.98959 2.0377 1.4844 3.4961 1.4844 c1.7057 0 3.0078 -0.55338 3.9063 -1.6602 c0.15625 -0.19531 0.23438 -0.39713 0.23438 -0.60547 l0 -0.039063 c-0.013027 -0.16928 -0.071621 -0.33203 -0.17578 -0.48828 c-0.20834 -0.28646 -0.53387 -0.5534 -0.97658 -0.8008 c0.57291 -0.32553 1.1849 -0.48828 1.8359 -0.48828 c0.71615 0 1.3867 0.20182 2.0117 0.60547 l-0.019531 0.3125 l0 0.097656 c-0.013027 0.05209 -0.019531 0.11068 -0.019531 0.17578 c-0.026035 0.20834 -0.065098 0.41668 -0.11719 0.62502 c-0.15625 0.63803 -0.41666 1.224 -0.78125 1.7578 c-1.1328 1.6667 -3.0404 2.5 -5.7227 2.5 c-2.8646 0 -4.8242 -0.95053 -5.8789 -2.8516 c-0.88541 -1.6016 -1.3411 -4.4336 -1.3672 -8.4961 l0 -0.35156 c0 -2.1484 0.11719 -3.8736 0.35156 -5.1758 c0.33854 -1.849 0.96354 -3.2291 1.875 -4.1406 c1.1198 -1.1198 2.793 -1.6797 5.0195 -1.6797 c2.6693 0 4.5703 0.83334 5.7031 2.5 c0.36459 0.52084 0.63152 1.1068 0.8008 1.7578 c0.05209 0.20834 0.091152 0.41016 0.11719 0.60547 c0 0.065098 0.0065041 0.1302 0.019531 0.19529 l0 0.097656 l0.019531 0.3125 c-0.625 0.40365 -1.2956 0.60547 -2.0117 0.60547 c-0.65104 0 -1.263 -0.16275 -1.8359 -0.48828 c0.44271 -0.2474 0.76824 -0.51434 0.97658 -0.8008 z M161.25005 40.17578 c0.41666 0.3125 0.87889 0.54688 1.3867 0.70313 l0 0.35156 c-0.67709 0.53385 -1.4388 0.80078 -2.2852 0.80078 c-0.65104 0 -1.263 -0.16275 -1.8359 -0.48828 c0.23438 -0.14322 0.45572 -0.3125 0.66406 -0.50781 c0.75521 -0.11719 1.4453 -0.40365 2.0703 -0.85938 z M165.54685 13.574000000000002 l0.13672 -0.019512 l0.13672 0 c0.65104 0 1.2565 0.16275 1.8164 0.48828 c-1.2109 0.70313 -1.8164 1.7578 -1.8164 3.1641 l0 5.293 l-0.9375 0 l0 -7.1289 c0 -0.67709 0.22135 -1.2761 0.66406 -1.7969 z M172.55875 29.141 l0 0.9375 l-6.7383 0 l0 8.418 l0.019531 0.11719 c-0.63803 -0.5599 -0.95703 -1.25 -0.95703 -2.0703 l0 -7.4023 l7.6758 0 z M182.59775 14.043 c-1.224 0.70313 -1.8359 1.7578 -1.8359 3.1641 l0 7.4219 l0.019531 0.11719 l0 0.11719 c-0.63803 -0.54688 -0.95703 -1.237 -0.95703 -2.0703 l0 -7.4219 c0 -0.67709 0.22787 -1.2761 0.68359 -1.7969 l0.13672 -0.019531 l0.11719 0 c0.66406 0 1.276 0.16275 1.8359 0.48828 z M181.36675 40.3516 c0.32553 0.50781 0.73566 0.90492 1.2304 1.1914 c-0.57291 0.32553 -1.1849 0.48828 -1.8359 0.48828 c-0.84635 0 -1.6081 -0.26693 -2.2852 -0.80078 l0 -0.17578 l0.23438 0.019531 l0.21484 0.019531 c0.80729 0 1.569 -0.20182 2.2852 -0.60547 c0.039063 -0.026035 0.091152 -0.071602 0.15625 -0.1367 z M166.40675 40.35158 c0.32553 0.49479 0.73566 0.89191 1.2304 1.1914 c-0.5599 0.32553 -1.1654 0.48828 -1.8164 0.48828 c-0.85938 0 -1.6211 -0.26693 -2.2852 -0.80078 l0 -0.17578 l0.21484 0.019531 l0.23438 0.019531 c0.80729 0 1.5625 -0.20182 2.2656 -0.60547 c0.05209 -0.026035 0.10418 -0.071602 0.15627 -0.1367 z M181.36675 26.602 c0.32553 0.50781 0.73568 0.90492 1.2305 1.1914 c-1.224 0.71615 -1.8359 1.7708 -1.8359 3.1641 l0 7.4219 l0.019531 0.11719 l0 0.11719 c-0.63803 -0.5599 -0.95703 -1.25 -0.95703 -2.0703 l0 -7.4219 c0 -1.0547 0.46225 -1.849 1.3867 -2.3828 c0.039063 -0.026035 0.091152 -0.071602 0.15625 -0.1367 z M176.19175 40.17578 c0.41666 0.3125 0.87893 0.54689 1.3867 0.70314 l0 0.35156 c-0.67709 0.53385 -1.4388 0.80078 -2.2852 0.80078 c-0.65104 0 -1.2565 -0.16275 -1.8164 -0.48828 c0.22135 -0.13021 0.4427 -0.29949 0.66404 -0.50783 c0.75521 -0.11719 1.4388 -0.40365 2.0508 -0.85938 z M178.92575 11.719000000000001 c0.66406 0 1.276 0.16275 1.8359 0.48828 c-1.224 0.70313 -1.8359 1.7578 -1.8359 3.1641 l0 7.4219 c0 1.4063 0.61197 2.4609 1.8359 3.1641 c-1.224 0.70313 -1.8359 1.7578 -1.8359 3.1641 l0 7.4219 c0 1.3932 0.61197 2.4479 1.8359 3.1641 c-0.57291 0.32553 -1.1849 0.48828 -1.8359 0.48828 c-0.84635 0 -1.6081 -0.27344 -2.2852 -0.82031 l0 -26.855 c0.67709 -0.53385 1.4388 -0.80078 2.2852 -0.80078 z M163.98435 40.19533 c-0.85938 0 -1.6211 -0.27344 -2.2852 -0.82031 l0 -13.105 l14.043 0 l0 13.105 c-0.67709 0.54688 -1.4388 0.82031 -2.2852 0.82031 c-0.65104 0 -1.2565 -0.16275 -1.8164 -0.48828 c1.2109 -0.71615 1.8164 -1.7708 1.8164 -3.1641 l0 -8.3008 l-9.4727 0 l0 8.3008 c0 1.3932 0.60547 2.4479 1.8164 3.1641 c-0.5599 0.32553 -1.1654 0.48828 -1.8164 0.48828 z M173.45675 15.370999999999999 c0 -1.4063 -0.60547 -2.4609 -1.8164 -3.1641 c0.5599 -0.32553 1.1654 -0.48828 1.8164 -0.48828 c0.84635 0 1.6081 0.26693 2.2852 0.80078 l0 12.852 l-14.043 0 l0 -12.852 c0.66406 -0.53385 1.4258 -0.80078 2.2852 -0.80078 c0.65104 0 1.2565 0.16275 1.8164 0.48828 c-1.2109 0.70313 -1.8164 1.7578 -1.8164 3.1641 l0 8.0273 l9.4727 0 l0 -8.0273 z M158.51565 11.719000000000001 c0.85938 0 1.6211 0.26693 2.2852 0.80078 l0 26.855 c-0.67709 0.54688 -1.4388 0.82031 -2.2852 0.82031 c-0.66406 0 -1.276 -0.16275 -1.8359 -0.48828 c1.224 -0.71615 1.8359 -1.7708 1.8359 -3.1641 l0 -7.4219 c0 -1.4063 -0.61197 -2.4609 -1.8359 -3.1641 c1.224 -0.70313 1.8359 -1.7578 1.8359 -3.1641 l0 -7.4219 c0 -1.4063 -0.61197 -2.4609 -1.8359 -3.1641 c0.5599 -0.32553 1.1719 -0.48828 1.8359 -0.48828 z"></path></g></svg>